<?xml version="1.0" encoding="UTF-8" standalone="no"?>
<!-- Created with Inkscape (http://www.inkscape.org/) -->

<svg
   version="1.1"
   id="svg9249"
   width="151.81003"
   height="128.48656"
   xmlns:inkscape="http://www.inkscape.org/namespaces/inkscape"
   xmlns:sodipodi="http://sodipodi.sourceforge.net/DTD/sodipodi-0.dtd"
   xmlns="http://www.w3.org/2000/svg"
   xmlns:svg="http://www.w3.org/2000/svg">
  <defs
     id="defs9253" />
  <sodipodi:namedview
     id="namedview9251"
     pagecolor="#ffffff"
     bordercolor="#666666"
     borderopacity="1.0"
     inkscape:pageshadow="2"
     inkscape:pageopacity="0.0"
     inkscape:pagecheckerboard="0" />
  <inkscape:clipboard
     min="135.44202,194.12437"
     max="287.25204,322.61093"
     geom-min="136.23809,194.9202"
     geom-max="286.45584,321.82927" />
  <g
     id="g9255"
     transform="matrix(3.7795276,0,0,3.7795276,-135.44202,-863.10076)">
    <ellipse
       style="fill:none;fill-opacity:1;stroke:#000000;stroke-width:0.421322;stroke-dasharray:1.05331, 1.05331;stroke-opacity:1;marker-start:none;marker-end:none"
       id="path1379"
       cx="55.918884"
       cy="245.36165"
       rx="19.872557"
       ry="16.789013" />
    <path
       style="fill:none;fill-opacity:1;stroke:#000000;stroke-width:0.421322;stroke-dasharray:1.05331, 1.05331;stroke-opacity:1;marker-start:none;marker-end:none"
       d="M 52.145936,261.55037 C 41.468951,259.51008 34.814251,251.30773 36.648195,242.4484 c 0.5828,-2.81538 1.978141,-5.20798 4.493069,-7.70429 1.935218,-1.92089 2.735197,-2.50327 4.820965,-3.50963 3.81145,-1.83899 5.279993,-2.15736 9.950985,-2.15736 4.670993,0 6.139537,0.31837 9.950984,2.15736 2.085771,1.00636 2.885749,1.58874 4.82097,3.50963 2.514923,2.49631 3.910264,4.88891 4.49307,7.70429 1.706898,8.24563 -4.125566,16.21376 -13.677337,18.68555 -2.739339,0.70887 -6.863775,0.89247 -9.354965,0.41642 z"
       id="path1603" />
    <path
       style="fill:none;fill-opacity:1;stroke:#000000;stroke-width:0.421322;stroke-dasharray:1.05331, 1.05331;stroke-opacity:1;marker-start:none;marker-end:none"
       d="m 53.25241,261.40427 c -6.337374,-0.76105 -12.536035,-4.75979 -14.998925,-9.67579 -1.605531,-3.20468 -1.991854,-6.19937 -1.221388,-9.46798 0.629481,-2.6705 1.852401,-4.68926 4.387919,-7.24346 1.917655,-1.93179 2.678536,-2.48969 4.794224,-3.51532 3.614554,-1.75222 4.97392,-2.03784 9.698974,-2.03784 4.725056,0 6.084421,0.28562 9.698976,2.03784 2.115688,1.02563 2.876569,1.58353 4.794224,3.51532 2.535518,2.5542 3.758438,4.57296 4.387918,7.24346 1.3642,5.78746 -1.341509,11.91706 -6.902076,15.63619 -4.100971,2.7429 -9.745655,4.09531 -14.639846,3.50758 z"
       id="path1642" />
    <path
       style="fill:none;fill-opacity:1;stroke:#000000;stroke-width:0.421322;stroke-dasharray:1.05331, 1.05331;stroke-opacity:1;marker-start:none;marker-end:none"
       d="m 53.320173,261.10631 c -6.087065,-0.6808 -12.489789,-4.86081 -14.843853,-9.6908 -0.924065,-1.89596 -1.589635,-4.35236 -1.583229,-5.84315 0.0079,-1.83056 0.727897,-4.60182 1.645589,-6.33358 0.535112,-1.00979 1.761506,-2.55093 3.142789,-3.94937 1.914999,-1.93877 2.658825,-2.48483 4.810901,-3.53175 3.195155,-1.55435 5.361304,-2.01846 9.420844,-2.01846 4.059541,0 6.22569,0.46411 9.420844,2.01846 2.15701,1.04932 2.896957,1.59338 4.84656,3.56352 2.702833,2.73129 4.039084,5.13644 4.51889,8.13364 0.819746,5.12074 -2.002618,10.78429 -7.059845,14.16677 -4.043651,2.70456 -9.475687,4.02647 -14.31949,3.48472 z"
       id="path1681" />
    <path
       style="fill:none;fill-opacity:1;stroke:#000000;stroke-width:0.421322;stroke-dasharray:1.05331, 1.05331;stroke-opacity:1;marker-start:none;marker-end:none"
       d="m 50.956457,260.3701 c -6.868449,-1.91872 -11.912611,-6.58862 -13.397032,-12.40302 -0.509677,-1.99637 -0.509677,-3.08039 0,-5.07676 0.736261,-2.88389 1.883445,-4.80804 4.356595,-7.30723 1.959046,-1.97968 2.667926,-2.49862 4.820975,-3.52922 3.437523,-1.64544 4.76926,-1.92479 9.176219,-1.92479 4.406958,0 5.738698,0.27935 9.17622,1.92479 2.154024,1.03107 2.861652,1.54926 4.825103,3.53339 4.87149,4.92278 5.8596,9.80689 3.118364,15.41368 -2.009122,4.10936 -5.775537,7.17241 -10.866798,8.83747 -2.182661,0.71382 -3.000009,0.84018 -5.986809,0.92555 -2.777646,0.0794 -3.806494,0.002 -5.222837,-0.39386 z"
       id="path1720" />
    <path
       style="fill:none;fill-opacity:1;stroke:#000000;stroke-width:0.421322;stroke-dasharray:1.05331, 1.05331;stroke-opacity:1;marker-start:none;marker-end:none"
       d="m 51.52289,260.20063 c -0.951238,-0.21268 -2.983233,-1.00704 -4.515546,-1.76524 -2.346587,-1.1611 -3.123475,-1.71852 -4.925494,-3.53401 -2.387383,-2.40524 -3.582694,-4.46813 -4.304358,-7.42855 -0.920409,-3.77571 0.60483,-7.78387 4.43479,-11.65417 2.039083,-2.06055 2.686862,-2.53434 4.834779,-3.53617 3.340478,-1.55807 4.33216,-1.75429 8.866153,-1.75429 4.521321,0 5.539856,0.19985 8.780652,1.72286 3.95985,1.86092 7.980111,6.2099 9.040098,9.77926 1.25638,4.2307 -0.2594,9.11743 -3.984572,12.84587 -3.528962,3.53206 -7.770357,5.30425 -13.313214,5.5627 -2.289685,0.10676 -3.669461,0.0399 -4.913288,-0.23826 z"
       id="path1759" />
    <path
       style="fill:none;fill-opacity:1;stroke:#000000;stroke-width:0.421322;stroke-dasharray:1.05331, 1.05331;stroke-opacity:1;marker-start:none;marker-end:none"
       d="m 52.45417,260.0643 c -1.564354,-0.24316 -3.538352,-0.99969 -6.119847,-2.34539 -2.111692,-1.1008 -5.455287,-4.23735 -6.600843,-6.19209 -1.8927,-3.22965 -2.360716,-6.75213 -1.274535,-9.59263 1.299705,-3.39889 5.008248,-7.50525 8.233312,-9.1165 3.48679,-1.742 4.229955,-1.89139 9.353997,-1.88023 4.354333,0.009 4.772776,0.0548 6.4502,0.69788 2.79472,1.0715 4.666107,2.30476 7.001121,4.61379 2.730259,2.69989 4.111226,5.27703 4.30902,8.04142 0.486278,6.79637 -5.581869,13.68438 -13.503055,15.32743 -2.479384,0.51428 -6.091034,0.71965 -7.84937,0.44632 z"
       id="path1798" />
    <path
       style="fill:none;fill-opacity:1;stroke:#000000;stroke-width:0.421322;stroke-dasharray:1.05331, 1.05331;stroke-opacity:1;marker-start:none;marker-end:none"
       d="m 50.724647,259.31733 c -3.042798,-1.0127 -5.847744,-2.72467 -8.129558,-4.9618 -3.012707,-2.9537 -4.383334,-5.87309 -4.369901,-9.30772 0.0168,-4.29911 4.151342,-9.6668 9.486318,-12.31571 l 2.56308,-1.27261 h 5.613159 5.613156 l 2.070394,0.98861 c 5.167934,2.46769 9.394875,7.35635 9.907389,11.45837 0.753501,6.03084 -4.440246,12.64366 -11.800401,15.0246 -2.826028,0.91419 -8.740711,1.12276 -10.953636,0.38626 z"
       id="path1837" />
    <path
       style="fill:none;fill-opacity:1;stroke:#000000;stroke-width:0.421322;stroke-dasharray:1.05331, 1.05331;stroke-opacity:1;marker-start:none;marker-end:none"
       d="m 51.922011,259.25959 c -4.423558,-0.88552 -9.923515,-4.98573 -12.056925,-8.98842 -0.974881,-1.82906 -1.525399,-4.54277 -1.268759,-6.25418 0.574305,-3.82973 4.583629,-8.55 9.367602,-11.02868 l 2.693927,-1.39578 h 5.228606 5.228603 l 1.922441,0.96234 c 5.56569,2.78611 9.655805,7.4614 10.177015,11.63303 0.383225,3.06724 -1.276874,6.91084 -4.270928,9.88841 -2.080664,2.06921 -4.062343,3.34866 -6.630278,4.28077 -2.793296,1.01392 -7.704156,1.44044 -10.391304,0.90251 z"
       id="path1913" />
    <path
       style="fill:none;fill-opacity:1;stroke:#000000;stroke-width:0.421322;stroke-dasharray:1.05331, 1.05331;stroke-opacity:1;marker-start:none;marker-end:none"
       d="m 52.587211,259.09942 c -4.807482,-0.93564 -10.49196,-5.14558 -12.520742,-9.27291 -1.065163,-2.16695 -1.472917,-4.55503 -1.058834,-6.20123 1.012934,-4.02693 4.491427,-7.81974 9.897684,-10.79204 l 1.772756,-0.97464 h 5.252802 5.252805 l 1.755092,0.96936 c 4.189905,2.31413 7.171415,5.05044 8.769019,8.04786 1.685766,3.16282 1.65616,5.60046 -0.109154,8.98724 -2.248466,4.31372 -6.173364,7.3954 -10.988013,8.62736 -1.990508,0.50933 -6.69916,0.86673 -8.023415,0.609 z"
       id="path1952" />
    <path
       style="fill:none;fill-opacity:1;stroke:#000000;stroke-width:0.421322;stroke-dasharray:1.05331, 1.05331;stroke-opacity:1;marker-start:none;marker-end:none"
       d="m 52.297748,258.71911 c -3.101652,-0.73501 -7.233351,-3.23437 -9.634984,-5.82842 -2.557722,-2.76265 -3.938212,-6.43265 -3.371271,-8.96246 0.804847,-3.59139 4.187241,-7.52133 8.84219,-10.27358 l 2.587657,-1.52997 h 5.211969 5.211968 l 1.641256,0.95885 c 4.536575,2.65032 7.40478,5.40572 8.896262,8.54636 0.83801,1.76461 0.910048,2.10571 0.820254,3.88391 -0.259289,5.13467 -5.452134,10.8375 -11.401269,12.52099 -1.316842,0.37264 -6.312942,1.00443 -7.411921,0.93728 -0.240596,-0.0147 -0.867045,-0.12853 -1.392111,-0.25296 z"
       id="path1991" />
    <path
       style="fill:none;fill-opacity:1;stroke:#000000;stroke-width:0.421322;stroke-dasharray:1.05331, 1.05331;stroke-opacity:1;marker-start:none;marker-end:none"
       d="m 51.788971,258.24338 c -6.711569,-2.23186 -11.915696,-7.61434 -12.198337,-12.61642 -0.09547,-1.68964 -0.02477,-1.99206 0.906134,-3.87561 1.325375,-2.68171 4.346374,-5.70681 7.820015,-7.83062 l 2.502357,-1.52996 h 5.147842 5.147842 l 1.789523,1.11604 c 4.426217,2.76045 6.935644,5.2304 8.471746,8.33849 0.92352,1.86861 0.969277,2.08152 0.812311,3.77958 -0.517369,5.59687 -6.431976,11.33306 -12.816144,12.42955 -3.930418,0.67506 -5.968762,0.72584 -7.583289,0.18895 z"
       id="path2030" />
    <path
       style="fill:none;fill-opacity:1;stroke:#000000;stroke-width:0.421322;stroke-dasharray:1.05331, 1.05331;stroke-opacity:1;marker-start:none;marker-end:none"
       d="m 53.25241,258.17166 c -3.085774,-0.39498 -7.28245,-2.81431 -9.970513,-5.74785 -2.003518,-2.18649 -3.143179,-4.43974 -3.371964,-6.66678 -0.160054,-1.55798 -0.106124,-1.79912 0.822648,-3.67836 1.27713,-2.5841 4.14972,-5.52321 7.596722,-7.77266 l 2.527138,-1.64916 h 5.063834 5.063834 l 2.517161,1.62783 c 3.48887,2.25623 6.28056,5.1161 7.586784,7.77207 l 1.024285,2.0827 -0.322864,1.8828 c -0.455861,2.65837 -1.641975,4.7526 -4.058766,7.16625 -3.046553,3.04259 -6.227424,4.45502 -11.152293,4.95206 -1.097582,0.11077 -2.594285,0.12477 -3.326006,0.0311 z"
       id="path2069" />
    <path
       style="fill:none;fill-opacity:1;stroke:#000000;stroke-width:0.421322;stroke-dasharray:1.05331, 1.05331;stroke-opacity:1;marker-start:none;marker-end:none"
       d="m 51.241426,257.34419 c -4.826066,-1.69591 -9.392187,-5.98198 -10.624987,-9.97332 -0.729297,-2.36119 -0.683977,-2.90329 0.428657,-5.12732 1.210202,-2.41905 4.067741,-5.35255 7.463049,-7.66143 l 2.4399,-1.65919 h 4.954035 4.954034 l 2.451037,1.63794 c 3.292795,2.20046 6.165291,5.13923 7.481361,7.65397 1.027964,1.96423 1.031851,1.98327 0.73266,3.59208 -0.481888,2.59124 -1.740958,4.81178 -4.02132,7.09214 -3.219998,3.22 -6.750341,4.68891 -11.852717,4.93169 -2.301218,0.1095 -2.896613,0.0437 -4.405709,-0.48656 z"
       id="path2108" />
    <path
       style="fill:none;fill-opacity:1;stroke:#000000;stroke-width:0.421322;stroke-dasharray:1.05331, 1.05331;stroke-opacity:1;marker-start:none;marker-end:none"
       d="m 51.746042,257.17315 c -2.396725,-0.79058 -4.924692,-2.34933 -6.973065,-4.29959 -2.25866,-2.15049 -3.44334,-4.0181 -4.071641,-6.41882 l -0.462658,-1.76781 1.018154,-2.06009 c 1.244962,-2.51901 4.232142,-5.6255 7.605254,-7.90901 l 2.261682,-1.5311 h 4.789446 4.789447 l 2.261682,1.52329 c 3.15322,2.12376 6.267702,5.3201 7.5344,7.73243 0.994494,1.89394 1.009229,1.9637 0.714544,3.38319 -0.504656,2.43092 -1.775156,4.59961 -3.977756,6.78988 -3.189362,3.1715 -6.470608,4.55616 -11.603715,4.89668 -1.91684,0.12716 -2.672249,0.0612 -3.885774,-0.33905 z"
       id="path2147" />
    <path
       style="fill:none;fill-opacity:1;stroke:#000000;stroke-width:0.421322;stroke-dasharray:1.05331, 1.05331;stroke-opacity:1;marker-start:none;marker-end:none"
       d="m 52.012123,256.89684 c -3.555635,-1.14871 -7.549986,-4.18961 -9.549035,-7.26969 -0.543398,-0.83726 -1.195784,-2.28991 -1.449744,-3.22811 l -0.461743,-1.70582 1.028798,-1.95925 c 1.245108,-2.37119 4.297129,-5.54784 7.455241,-7.75968 l 2.169157,-1.5192 h 4.705448 4.705445 l 2.036241,1.39692 c 3.01548,2.06871 6.364555,5.52953 7.560125,7.81238 l 0.990925,1.8921 -0.402952,1.54703 c -0.617516,2.37081 -1.657919,4.05845 -3.848859,6.24327 -3.148394,3.13959 -6.280502,4.46259 -11.570116,4.8872 -1.4014,0.11249 -2.235533,0.029 -3.368931,-0.33715 z"
       id="path2186" />
    <path
       style="fill:none;fill-opacity:1;stroke:#000000;stroke-width:0.421322;stroke-dasharray:1.05331, 1.05331;stroke-opacity:1;marker-start:none;marker-end:none"
       d="m 53.162063,256.82081 c -2.540447,-0.43369 -6.137066,-2.6035 -8.575892,-5.17376 -1.77533,-1.87101 -2.71536,-3.4302 -3.30295,-5.47846 l -0.436557,-1.5218 1.130181,-1.93725 c 1.338096,-2.29363 4.581096,-5.6234 7.402391,-7.60045 l 1.980594,-1.38792 h 4.563165 4.563168 l 1.97081,1.38142 c 2.779411,1.94821 6.053741,5.31198 7.374501,7.57595 l 1.112076,1.90624 -0.533025,1.72574 c -1.404556,4.54741 -6.129271,8.83681 -11.038265,10.02122 -1.987656,0.47958 -4.915255,0.71013 -6.210197,0.48907 z"
       id="path2225" />
    <path
       style="fill:none;fill-opacity:1;stroke:#000000;stroke-width:0.421322;stroke-dasharray:1.05331, 1.05331;stroke-opacity:1;marker-start:none;marker-end:none"
       d="m 51.754583,256.09738 c -2.171491,-0.84938 -4.255458,-2.19423 -6.107512,-3.94137 -2.09268,-1.97412 -3.220204,-3.61917 -3.965641,-5.78581 l -0.530977,-1.54331 0.718603,-1.32031 c 1.422681,-2.61393 4.617591,-5.92812 8.226039,-8.53315 l 1.366052,-0.98618 h 4.487806 4.487805 l 2.309135,1.73303 c 2.744332,2.05966 5.593784,5.07389 6.927022,7.3276 l 0.963329,1.62841 -0.511186,1.48578 c -1.34213,3.90098 -4.680344,7.41359 -8.688845,9.14279 -2.936848,1.26691 -7.511483,1.64138 -9.68163,0.79252 z"
       id="path2264" />
    <path
       style="fill:none;fill-opacity:1;stroke:#000000;stroke-width:0.421322;stroke-dasharray:1.05331, 1.05331;stroke-opacity:1;marker-start:none;marker-end:none"
       d="m 52.754192,256.04258 c -1.828917,-0.42949 -4.679236,-2.13928 -6.677882,-4.00579 -2.11726,-1.97729 -3.258715,-3.57194 -4.107379,-5.73815 l -0.54525,-1.39175 0.578061,-1.00298 c 1.573578,-2.73026 4.213297,-5.55608 7.619564,-8.15674 l 1.956577,-1.49384 h 4.391113 4.391112 l 2.166879,1.70491 c 2.808716,2.20992 4.859581,4.33876 6.521738,6.76969 l 1.33717,1.95563 -0.533506,1.37037 c -1.995453,5.12552 -6.570366,8.95263 -11.820014,9.88794 -2.392399,0.42624 -3.779234,0.4527 -5.278183,0.10071 z"
       id="path2303" />
    <path
       style="fill:none;fill-opacity:1;stroke:#000000;stroke-width:0.421322;stroke-dasharray:1.05331, 1.05331;stroke-opacity:1;marker-start:none;marker-end:none"
       d="m 53.020273,255.79156 c -1.824649,-0.45515 -4.655841,-2.1424 -6.572335,-3.91678 -2.090878,-1.93583 -3.175079,-3.38697 -4.109984,-5.50095 l -0.634389,-1.43447 1.084532,-1.67798 c 1.387023,-2.14599 4.022249,-4.88483 6.777426,-7.04391 l 2.16688,-1.69806 h 4.258971 4.258974 l 2.088719,1.68936 c 2.490726,2.01451 5.128977,4.7822 6.663137,6.99005 l 1.115375,1.60517 -1.087806,2.24144 c -1.930267,3.97734 -5.877192,7.28914 -9.923594,8.32673 -2.140995,0.54901 -4.824863,0.73396 -6.085906,0.4194 z"
       id="path2342" />
    <path
       style="fill:none;fill-opacity:1;stroke:#000000;stroke-width:0.421322;stroke-dasharray:1.05331, 1.05331;stroke-opacity:1;marker-start:none;marker-end:none"
       d="m 50.693098,254.4277 c -2.966299,-1.48468 -6.393338,-4.81502 -7.757435,-7.53855 l -0.934373,-1.86556 0.968534,-1.46044 c 1.312243,-1.97873 4.749146,-5.53026 7.077794,-7.31386 l 1.911123,-1.4638 h 4.07626 4.076258 l 1.759143,1.4401 c 3.137356,2.56837 7.74595,7.71855 7.74595,8.65622 0,1.02164 -2.118169,4.28904 -3.97692,6.13464 -3.188359,3.1658 -6.369145,4.5233 -10.598573,4.5233 -1.963685,0 -2.295525,-0.0849 -4.347761,-1.11205 z"
       id="path2381" />
    <path
       style="fill:none;fill-opacity:1;stroke:#000000;stroke-width:0.421322;stroke-dasharray:1.05331, 1.05331;stroke-opacity:1;marker-start:none;marker-end:none"
       d="m 51.041509,254.20283 c -3.374855,-1.68917 -7.387814,-5.77907 -8.334263,-8.49406 -0.240853,-0.69091 -0.168005,-0.94107 0.598424,-2.05504 1.24783,-1.81366 4.566618,-5.23446 6.83773,-7.0479 l 1.946513,-1.55426 h 3.96694 3.966943 l 1.802873,1.554 c 2.213761,1.90816 5.786385,5.66745 6.846412,7.20412 l 0.786251,1.13979 -0.734827,1.4035 c -1.572763,3.00394 -4.705175,6.13459 -7.584413,7.58014 -1.488467,0.7473 -4.248346,1.33005 -6.326907,1.33593 -1.379358,0.004 -1.963608,-0.16125 -3.771676,-1.06622 z"
       id="path2420" />
    <path
       style="fill:none;fill-opacity:1;stroke:#000000;stroke-width:0.421322;stroke-dasharray:1.05331, 1.05331;stroke-opacity:1;marker-start:none;marker-end:none"
       d="m 53.119372,254.75878 c -2.985918,-0.91157 -7.275266,-4.43053 -9.30856,-7.63671 -0.988824,-1.55921 -1.007224,-2.30052 -0.08763,-3.53081 1.13933,-1.52429 5.123542,-5.54431 6.906159,-6.96823 l 1.63421,-1.30538 h 3.873952 3.873953 l 3.21356,3.09825 c 1.767456,1.70405 3.817165,3.85682 4.554902,4.78395 l 1.341345,1.68569 -0.883293,1.66462 c -1.173667,2.21183 -4.622659,5.66812 -6.798312,6.81268 -2.547864,1.34038 -6.390497,1.98508 -8.320281,1.39594 z"
       id="path2459" />
    <path
       style="fill:none;fill-opacity:1;stroke:#000000;stroke-width:0.421322;stroke-dasharray:1.05331, 1.05331;stroke-opacity:1;marker-start:none;marker-end:none"
       d="m 53.188177,254.44442 c -2.608093,-0.75326 -7.373106,-4.69472 -9.062114,-7.49587 -0.683093,-1.13288 -0.836498,-1.62066 -0.691449,-2.1986 0.210707,-0.83951 5.486551,-6.4026 7.668326,-8.08583 l 1.400387,-1.08039 h 3.729649 3.729648 l 4.135554,4.22599 c 2.274554,2.3243 4.259392,4.45739 4.410753,4.74021 0.634161,1.18494 -4.070163,6.77384 -7.071641,8.40135 -1.566264,0.84929 -5.03306,1.80136 -6.431399,1.76624 -0.52538,-0.0132 -1.343353,-0.13609 -1.817714,-0.2731 z"
       id="path2498" />
    <path
       style="fill:none;fill-opacity:1;stroke:#000000;stroke-width:0.421322;stroke-dasharray:1.05331, 1.05331;stroke-opacity:1;marker-start:none;marker-end:none"
       d="m 53.243655,254.10364 c -3.41817,-1.07091 -9.437095,-6.79037 -9.437095,-8.96756 0,-0.56984 0.638347,-1.40053 2.860363,-3.72221 1.573199,-1.64377 3.555063,-3.56813 4.40414,-4.27636 l 1.543775,-1.2877 h 3.578326 3.578325 l 3.720045,3.81589 c 2.046025,2.09875 3.981473,4.14825 4.300995,4.55446 0.571185,0.72614 0.572828,0.75365 0.09768,1.63594 -0.728515,1.35277 -3.069455,4.09548 -4.546124,5.32637 -1.716998,1.43121 -3.169031,2.14717 -5.632402,2.77719 -2.309932,0.59079 -2.973629,0.61217 -4.468028,0.14398 z"
       id="path2537" />
    <path
       style="fill:none;fill-opacity:1;stroke:#000000;stroke-width:0.421322;stroke-dasharray:1.05331, 1.05331;stroke-opacity:1;marker-start:none;marker-end:none"
       d="m 53.059915,253.69314 c -2.653025,-1.03712 -7.579733,-5.37218 -8.645615,-7.60736 -0.418766,-0.87816 -0.410763,-0.92788 0.318913,-1.9808 0.411652,-0.59402 2.349611,-2.63457 4.306573,-4.53456 l 3.558114,-3.45453 h 3.562977 3.562979 l 4.157152,4.40435 4.157152,4.40434 -0.607827,1.10229 c -0.946145,1.71582 -4.919665,5.62024 -6.553626,6.43965 -1.454706,0.72952 -5.004948,1.75274 -6.003856,1.73039 -0.305864,-0.007 -1.121685,-0.23354 -1.812936,-0.50377 z"
       id="path2576" />
    <path
       style="fill:none;fill-opacity:1;stroke:#000000;stroke-width:0.421322;stroke-dasharray:1.05331, 1.05331;stroke-opacity:1;marker-start:none;marker-end:none"
       d="m 53.360863,253.45245 c -1.66502,-0.66799 -3.408204,-1.90488 -5.638128,-4.00057 -2.41772,-2.27218 -3.476792,-3.87764 -3.072823,-4.65812 0.160107,-0.30933 2.036254,-2.32853 4.169219,-4.48711 l 3.878112,-3.92468 3.47055,0.0146 3.470547,0.0146 4.01855,4.29388 4.01855,4.29389 -0.503031,0.85258 c -0.743527,1.26018 -3.431664,4.11363 -5.052089,5.36278 -1.429782,1.10219 -4.444225,2.30328 -6.484377,2.58368 -0.697902,0.0959 -1.465302,-0.0206 -2.27508,-0.3455 z"
       id="path2615" />
    <path
       style="fill:none;fill-opacity:1;stroke:#000000;stroke-width:0.421322;stroke-dasharray:1.05331, 1.05331;stroke-opacity:1;marker-start:none;marker-end:none"
       d="m 54.316734,253.40444 c -1.791552,-0.38241 -4.521862,-2.29488 -7.079187,-4.95869 -1.673312,-1.74299 -2.366666,-2.69248 -2.366666,-3.24095 0,-0.20436 1.817778,-2.21323 4.039502,-4.46416 l 4.039505,-4.09259 h 3.235796 3.235796 l 3.434435,3.663 c 5.030559,5.36536 4.594214,4.60229 3.490526,6.10412 -1.362223,1.85362 -4.39615,4.69518 -5.750947,5.3863 -2.469721,1.25987 -4.936153,1.88956 -6.27876,1.60297 z"
       id="path2654" />
    <path
       style="fill:none;fill-opacity:1;stroke:#000000;stroke-width:0.421322;stroke-dasharray:1.05331, 1.05331;stroke-opacity:1;marker-start:none;marker-end:none"
       d="m 52.463767,252.27318 c -1.701279,-0.9195 -6.083832,-4.92597 -6.876783,-6.28667 l -0.481256,-0.82583 4.048911,-4.12328 4.048911,-4.12327 h 2.988098 2.988101 l 1.979401,2.06212 c 4.01275,4.18045 5.530318,5.90889 5.530318,6.29881 0,0.66117 -4.643496,5.31124 -6.089793,6.09841 -1.896348,1.03212 -4.188087,1.77275 -5.459836,1.76447 -0.710991,-0.005 -1.640197,-0.3049 -2.676072,-0.86476 z"
       id="path2693" />
    <path
       style="fill:none;fill-opacity:1;stroke:#000000;stroke-width:0.421322;stroke-dasharray:1.05331, 1.05331;stroke-opacity:1;marker-start:none;marker-end:none"
       d="m 52.842952,252.03354 c -1.210501,-0.6049 -2.525374,-1.66499 -4.621731,-3.7262 l -2.929909,-2.88079 3.98055,-4.08425 3.980548,-4.08425 2.926884,-0.0319 2.926885,-0.0319 3.444615,3.71125 c 1.894541,2.04119 3.551016,3.90137 3.681056,4.13374 0.183464,0.32783 -0.349832,1.0073 -2.380295,3.03271 -2.690926,2.68422 -4.094896,3.59857 -6.722753,4.37826 -1.981137,0.5878 -2.347,0.55223 -4.28585,-0.41662 z"
       id="path2732" />
    <path
       style="fill:none;fill-opacity:1;stroke:#000000;stroke-width:0.421322;stroke-dasharray:1.05331, 1.05331;stroke-opacity:1;marker-start:none;marker-end:none"
       d="m 53.163367,251.79461 c -1.078854,-0.53911 -2.59112,-1.72875 -4.432824,-3.48713 -1.537438,-1.46788 -2.795341,-2.75795 -2.795341,-2.86681 0,-0.10887 1.687319,-1.95214 3.749601,-4.09616 l 3.749601,-3.89822 h 2.752492 2.752495 l 3.475918,3.78762 c 1.911755,2.08318 3.476067,3.90916 3.476247,4.05772 5.29e-4,0.52735 -5.028988,5.17001 -6.296017,5.81162 -1.246328,0.63113 -3.85707,1.50962 -4.48636,1.50962 -0.169579,0 -1.045197,-0.36822 -1.945812,-0.81826 z"
       id="path2771" />
    <path
       style="fill:none;fill-opacity:1;stroke:#000000;stroke-width:0.421322;stroke-dasharray:1.05331, 1.05331;stroke-opacity:1;marker-start:none;marker-end:none"
       d="m 53.274013,251.47842 c -0.871508,-0.4727 -2.767412,-1.99458 -4.245001,-3.40756 l -2.670122,-2.55336 0.570521,-0.7253 c 0.313788,-0.39892 1.94899,-2.15507 3.633785,-3.90257 l 3.063261,-3.17726 2.60682,0.008 2.606821,0.008 2.693178,2.9857 c 1.481248,1.64213 3.007436,3.36166 3.391529,3.82117 l 0.69835,0.83546 -2.398697,2.28268 c -1.319284,1.25547 -2.914909,2.58519 -3.545832,2.95493 -1.129276,0.6618 -3.970081,1.74584 -4.538787,1.73198 -0.16002,-0.004 -0.999643,-0.39148 -1.865826,-0.86128 z"
       id="path2810" />
    <path
       style="fill:none;fill-opacity:1;stroke:#000000;stroke-width:0.421322;stroke-dasharray:1.05331, 1.05331;stroke-opacity:1;marker-start:none;marker-end:none"
       d="m 53.577009,251.23004 c -0.845878,-0.45775 -2.728304,-1.94843 -4.183163,-3.31262 l -2.645198,-2.48034 3.477328,-3.72931 3.477329,-3.72932 h 2.475407 2.47541 l 3.03544,3.39253 c 1.669492,1.86588 3.124319,3.5406 3.232949,3.72158 0.126294,0.21042 -0.443378,0.92996 -1.579962,1.99561 -3.162337,2.96498 -4.702881,3.92917 -7.695414,4.81638 -0.331623,0.0983 -1.111721,-0.15586 -2.070126,-0.67451 z"
       id="path2849" />
    <path
       style="fill:none;fill-opacity:1;stroke:#000000;stroke-width:0.421322;stroke-dasharray:1.05331, 1.05331;stroke-opacity:1;marker-start:none;marker-end:none"
       d="m 53.518491,250.77258 c -1.373158,-0.79576 -6.119847,-4.93111 -6.119847,-5.33166 0,-0.12417 1.436833,-1.78688 3.192965,-3.69491 l 3.192963,-3.46913 2.394722,0.005 2.394723,0.005 1.565688,1.77515 c 4.872439,5.52431 4.510955,5.01599 4.042571,5.6847 -1.481114,2.11458 -7.016567,5.80647 -8.696103,5.79989 -0.350504,-10e-4 -1.235961,-0.34943 -1.967682,-0.77347 z"
       id="path2966" />
    <path
       style="fill:none;fill-opacity:1;stroke:#000000;stroke-width:0.421322;stroke-dasharray:1.05331, 1.05331;stroke-opacity:1;marker-start:none;marker-end:none"
       d="m 53.86024,250.54858 c -1.512787,-0.87959 -6.117037,-4.82497 -6.007362,-5.1477 0.04286,-0.12613 1.433669,-1.72803 3.090685,-3.55979 l 3.012758,-3.33048 h 2.213639 2.213642 l 2.822532,3.23457 c 1.552393,1.77901 2.82253,3.38435 2.82253,3.56743 0,0.80579 -4.936384,4.56064 -7.283182,5.53993 -1.342388,0.56016 -1.411595,0.55287 -2.885242,-0.30396 z"
       id="path3005" />
    <path
       style="fill:none;fill-opacity:1;stroke:#000000;stroke-width:0.421322;stroke-dasharray:1.05331, 1.05331;stroke-opacity:1;marker-start:none;marker-end:none"
       d="m 54.050653,250.23218 c -1.698437,-0.98999 -5.780744,-4.49039 -5.659845,-4.85308 0.05053,-0.15158 1.34466,-1.69486 2.875854,-3.4295 l 2.783991,-3.1539 2.062816,-0.009 2.062813,-0.01 0.964004,1.06703 c 0.530201,0.58687 1.783075,2.05273 2.784163,3.25747 l 1.820159,2.19044 -0.988605,1.01242 c -1.018681,1.04323 -4.102206,3.26808 -5.512388,3.97735 -1.506307,0.75762 -1.816938,0.75283 -3.192962,-0.0492 z"
       id="path3044" />
    <path
       style="fill:none;fill-opacity:1;stroke:#000000;stroke-width:0.421322;stroke-dasharray:1.05331, 1.05331;stroke-opacity:1;marker-start:none;marker-end:none"
       d="m 53.482293,249.43764 c -1.783344,-1.1962 -4.620207,-3.66791 -4.620207,-4.02551 0,-0.13204 1.210832,-1.61917 2.690736,-3.30472 l 2.690736,-3.06464 h 1.92279 1.922788 l 2.601593,3.07958 2.601592,3.07959 -0.762669,0.79987 c -1.759392,1.84523 -5.86286,4.48242 -6.974637,4.48242 -0.281842,0 -1.214567,-0.47096 -2.072722,-1.04659 z"
       id="path3083" />
    <path
       style="fill:none;fill-opacity:1;stroke:#000000;stroke-width:0.421322;stroke-dasharray:1.05331, 1.05331;stroke-opacity:1;marker-start:none;marker-end:none"
       d="m 53.759304,249.19609 c -1.797092,-1.16898 -4.365059,-3.41837 -4.365059,-3.82352 0,-0.1501 1.107562,-1.56875 2.461245,-3.15255 l 2.461244,-2.87965 1.789959,-0.0158 1.789962,-0.0158 2.068202,2.43118 c 3.05384,3.5898 2.926834,3.32292 2.031426,4.26883 -1.362948,1.43981 -5.593746,4.20928 -6.430338,4.20928 -0.129484,0 -0.942472,-0.45993 -1.806641,-1.02206 z"
       id="path3122" />
    <path
       style="fill:none;fill-opacity:1;stroke:#000000;stroke-width:0.421322;stroke-dasharray:1.05331, 1.05331;stroke-opacity:1;marker-start:none;marker-end:none"
       d="m 53.591243,248.63103 c -1.064424,-0.71476 -2.376431,-1.75762 -2.915578,-2.31747 l -0.980266,-1.0179 2.396027,-2.86036 2.396025,-2.86036 1.644163,0.004 1.644163,0.004 2.195163,2.6262 c 1.207339,1.4444 2.195163,2.73533 2.195163,2.86872 0,0.64697 -4.553963,4.10052 -6.180137,4.68679 -0.299151,0.10785 -1.134517,-0.28771 -2.394723,-1.13393 z"
       id="path3161" />
    <path
       style="fill:none;fill-opacity:1;stroke:#000000;stroke-width:0.421322;stroke-dasharray:1.05331, 1.05331;stroke-opacity:1;marker-start:none;marker-end:none"
       d="m 53.4937,248.11999 c -1.010772,-0.71495 -2.178265,-1.66117 -2.594423,-2.1027 l -0.75665,-0.80279 2.220093,-2.66727 2.220092,-2.66726 1.516396,-0.0195 1.516393,-0.0195 2.146197,2.59428 2.146194,2.59429 -1.206778,1.11245 c -1.554578,1.43307 -4.317746,3.27787 -4.909632,3.27787 -0.253061,0 -1.287108,-0.58496 -2.297882,-1.29991 z"
       id="path3200" />
    <path
       style="fill:none;fill-opacity:1;stroke:#000000;stroke-width:0.421322;stroke-dasharray:1.05331, 1.05331;stroke-opacity:1;marker-start:none;marker-end:none"
       d="m 53.75978,247.85566 c -1.010774,-0.714 -2.124752,-1.60851 -2.475505,-1.98781 -0.726823,-0.78597 -0.915043,-0.4016 1.81102,-3.69831 l 1.705446,-2.06244 1.354479,0.0152 1.354476,0.0152 1.963748,2.39526 1.963746,2.39527 -0.766385,0.80452 c -0.767842,0.80605 -4.491354,3.4212 -4.871193,3.4212 -0.111133,0 -1.029057,-0.58417 -2.039832,-1.29817 z"
       id="path3239" />
    <path
       style="fill:none;fill-opacity:1;stroke:#000000;stroke-width:0.421322;stroke-dasharray:1.05331, 1.05331;stroke-opacity:1;marker-start:none;marker-end:none"
       d="m 54.279798,247.78559 c -1.793378,-1.24401 -3.022989,-2.345 -3.022989,-2.70677 0,-0.13768 0.844153,-1.25277 1.875896,-2.47798 1.821174,-2.16268 1.909593,-2.22766 3.031045,-2.22766 1.122707,0 1.20454,0.0605 2.913549,2.15247 0.967121,1.18386 1.758403,2.24908 1.758403,2.36716 0,0.30996 -1.597647,1.66656 -3.420486,2.90443 l -1.575871,1.07015 z"
       id="path3278" />
    <path
       style="fill:none;fill-opacity:1;stroke:#000000;stroke-width:0.421322;stroke-dasharray:1.05331, 1.05331;stroke-opacity:1;marker-start:none;marker-end:none"
       d="m 54.423175,247.52403 c -0.643921,-0.45736 -1.55394,-1.19348 -2.022268,-1.63583 l -0.851503,-0.80427 1.184674,-1.5079 c 1.933853,-2.46149 2.589223,-2.98758 3.599529,-2.88949 0.731071,0.071 1.158444,0.42137 2.480083,2.03336 1.283258,1.56518 1.54323,2.0354 1.323964,2.39472 -0.343043,0.56217 -3.856588,3.24083 -4.251036,3.24091 -0.160973,3e-5 -0.819523,-0.37414 -1.463443,-0.8315 z"
       id="path3317" />
    <path
       style="fill:none;fill-opacity:1;stroke:#000000;stroke-width:0.421322;stroke-dasharray:1.05331, 1.05331;stroke-opacity:1;marker-start:none;marker-end:none"
       d="m 54.682382,247.30131 c -0.64014,-0.42435 -1.498634,-1.12135 -1.907767,-1.54889 l -0.743879,-0.77734 1.039125,-1.31458 c 1.115081,-1.41069 2.586014,-2.75516 3.014302,-2.75516 0.580166,0 1.325396,0.60844 2.477458,2.02272 0.665366,0.8168 1.209757,1.65198 1.209757,1.85594 0,0.33403 -2.413233,2.4384 -3.492513,3.04552 -0.312536,0.1758 -0.755605,0.0292 -1.596483,-0.52821 z"
       id="path3356" />
    <path
       style="fill:none;fill-opacity:1;stroke:#000000;stroke-width:0.421322;stroke-dasharray:1.05331, 1.05331;stroke-opacity:1;marker-start:none;marker-end:none"
       d="m 54.556216,246.79806 c -0.570749,-0.41761 -1.259996,-1.00986 -1.531665,-1.31611 -0.481949,-0.5433 -0.480859,-0.57492 0.04489,-1.30283 0.296355,-0.41031 1.080558,-1.27314 1.74267,-1.91739 1.171133,-1.13955 1.221576,-1.15975 1.856579,-0.74368 0.58923,0.38608 2.213242,2.23047 2.668717,3.03086 0.197096,0.34634 -2.80978,3.00843 -3.398083,3.00843 -0.189961,0 -0.812358,-0.34167 -1.383108,-0.75928 z"
       id="path3395" />
    <path
       style="fill:none;fill-opacity:1;stroke:#000000;stroke-width:0.421322;stroke-dasharray:1.05331, 1.05331;stroke-opacity:1;marker-start:none;marker-end:none"
       d="m 54.693881,246.4255 c -1.889445,-1.45065 -1.89951,-1.58226 -0.248824,-3.2537 0.797488,-0.80753 1.592643,-1.46822 1.767011,-1.46822 0.339871,0 2.76107,2.57365 2.76107,2.93493 0,0.24059 -2.008629,2.02638 -2.707955,2.40752 -0.331776,0.18083 -0.734911,0.0216 -1.571302,-0.62053 z"
       id="path3512" />
    <path
       style="fill:none;fill-opacity:1;stroke:#000000;stroke-width:0.421322;stroke-dasharray:1.05331, 1.05331;stroke-opacity:1;marker-start:none;marker-end:none"
       d="m 54.643438,245.94149 c -0.545549,-0.44968 -0.991907,-0.95445 -0.991907,-1.1217 0,-0.16725 0.564232,-0.87694 1.253845,-1.57708 l 1.253847,-1.27298 1.140878,1.11968 c 0.627481,0.61583 1.140876,1.26503 1.140876,1.44268 0,0.37775 -2.088425,2.22701 -2.515032,2.22701 -0.159829,0 -0.73696,-0.36792 -1.282507,-0.81761 z"
       id="path3551" />
    <path
       style="fill:none;fill-opacity:1;stroke:#000000;stroke-width:0.421322;stroke-dasharray:1.05331, 1.05331;stroke-opacity:1;marker-start:none;marker-end:none"
       d="m 54.846043,245.65659 -0.958884,-0.84191 1.134898,-1.15638 1.134901,-1.15638 1.00796,0.98424 1.007959,0.98425 -0.73071,0.76813 c -1.247535,1.3114 -1.527332,1.35646 -2.596124,0.41805 z"
       id="path3590" />
    <path
       style="fill:none;fill-opacity:1;stroke:#000000;stroke-width:0.421322;stroke-dasharray:1.05331, 1.05331;stroke-opacity:1;marker-start:none;marker-end:none"
       d="m 55.029704,245.34651 -0.577152,-0.61435 0.87815,-0.85114 0.878149,-0.85113 0.718032,0.74946 0.718031,0.74946 -0.747368,0.71603 c -0.911961,0.87371 -1.13133,0.88565 -1.867842,0.10167 z"
       id="path3629" />
    <path
       style="fill:none;fill-opacity:1;stroke:#000000;stroke-width:0.421322;stroke-dasharray:1.05331, 1.05331;stroke-opacity:1;marker-start:none;marker-end:none"
       d="m 55.426428,245.21276 c -0.416801,-0.46056 -0.406122,-0.52558 0.176128,-1.07258 0.600469,-0.56411 0.633685,-0.56699 1.063527,-0.092 0.416801,0.46056 0.406122,0.52559 -0.176131,1.07258 -0.600469,0.56412 -0.633682,0.56699 -1.063524,0.092 z"
       id="path3863" />
    <path
       style="fill:none;fill-opacity:1;stroke:#000000;stroke-width:0.421322;stroke-dasharray:1.05331, 1.05331;stroke-opacity:1;marker-start:none;marker-end:none"
       d="m 55.673752,244.93961 c -0.08459,-0.13687 0.01384,-0.38797 0.218705,-0.558 0.220289,-0.18283 0.435345,-0.20746 0.526301,-0.0603 0.08459,0.13687 -0.01384,0.38797 -0.218704,0.558 -0.22029,0.18283 -0.435348,0.20747 -0.526302,0.0603 z"
       id="path3902" />
  </g>
</svg>